simulate cocontraction
version=1
nRows=4
nColumns=195
inDegrees=yes
endheader
time	/jointset/ground_platform/platform_rx/value	/jointset/ground_platform/platform_rx/speed	/jointset/ground_platform/platform_ry/value	/jointset/ground_platform/platform_ry/speed	/jointset/ground_platform/platform_rz/value	/jointset/ground_platform/platform_rz/speed	/jointset/ground_platform/platform_ty/value	/jointset/ground_platform/platform_ty/speed	/jointset/ground_pelvis/pelvis_tilt/value	/jointset/ground_pelvis/pelvis_tilt/speed	/jointset/ground_pelvis/pelvis_list/value	/jointset/ground_pelvis/pelvis_list/speed	/jointset/ground_pelvis/pelvis_rotation/value	/jointset/ground_pelvis/pelvis_rotation/speed	/jointset/ground_pelvis/pelvis_tx/value	/jointset/ground_pelvis/pelvis_tx/speed	/jointset/ground_pelvis/pelvis_ty/value	/jointset/ground_pelvis/pelvis_ty/speed	/jointset/ground_pelvis/pelvis_tz/value	/jointset/ground_pelvis/pelvis_tz/speed	/jointset/hip_r/hip_flexion_r/value	/jointset/hip_r/hip_flexion_r/speed	/jointset/hip_r/hip_adduction_r/value	/jointset/hip_r/hip_adduction_r/speed	/jointset/hip_r/hip_rotation_r/value	/jointset/hip_r/hip_rotation_r/speed	/jointset/knee_r/knee_angle_r/value	/jointset/knee_r/knee_angle_r/speed	/jointset/ankle_r/ankle_angle_r/value	/jointset/ankle_r/ankle_angle_r/speed	/jointset/subtalar_r/subtalar_angle_r/value	/jointset/subtalar_r/subtalar_angle_r/speed	/jointset/mtp_r/mtp_angle_r/value	/jointset/mtp_r/mtp_angle_r/speed	/jointset/hip_l/hip_flexion_l/value	/jointset/hip_l/hip_flexion_l/speed	/jointset/hip_l/hip_adduction_l/value	/jointset/hip_l/hip_adduction_l/speed	/jointset/hip_l/hip_rotation_l/value	/jointset/hip_l/hip_rotation_l/speed	/jointset/knee_l/knee_angle_l/value	/jointset/knee_l/knee_angle_l/speed	/jointset/ankle_l/ankle_angle_l/value	/jointset/ankle_l/ankle_angle_l/speed	/jointset/subtalar_l/subtalar_angle_l/value	/jointset/subtalar_l/subtalar_angle_l/speed	/jointset/mtp_l/mtp_angle_l/value	/jointset/mtp_l/mtp_angle_l/speed	/jointset/back/lumbar_extension/value	/jointset/back/lumbar_extension/speed	/jointset/back/lumbar_bending/value	/jointset/back/lumbar_bending/speed	/jointset/back/lumbar_rotation/value	/jointset/back/lumbar_rotation/speed	/forceset/glut_med1_r/activation	/forceset/glut_med1_r/fiber_length	/forceset/glut_med2_r/activation	/forceset/glut_med2_r/fiber_length	/forceset/glut_med3_r/activation	/forceset/glut_med3_r/fiber_length	/forceset/bifemlh_r/activation	/forceset/bifemlh_r/fiber_length	/forceset/bifemsh_r/activation	/forceset/bifemsh_r/fiber_length	/forceset/sar_r/activation	/forceset/sar_r/fiber_length	/forceset/add_mag2_r/activation	/forceset/add_mag2_r/fiber_length	/forceset/tfl_r/activation	/forceset/tfl_r/fiber_length	/forceset/pect_r/activation	/forceset/pect_r/fiber_length	/forceset/grac_r/activation	/forceset/grac_r/fiber_length	/forceset/glut_max1_r/activation	/forceset/glut_max1_r/fiber_length	/forceset/glut_max2_r/activation	/forceset/glut_max2_r/fiber_length	/forceset/glut_max3_r/activation	/forceset/glut_max3_r/fiber_length	/forceset/iliacus_r/activation	/forceset/iliacus_r/fiber_length	/forceset/psoas_r/activation	/forceset/psoas_r/fiber_length	/forceset/quad_fem_r/activation	/forceset/quad_fem_r/fiber_length	/forceset/gem_r/activation	/forceset/gem_r/fiber_length	/forceset/peri_r/activation	/forceset/peri_r/fiber_length	/forceset/rect_fem_r/activation	/forceset/rect_fem_r/fiber_length	/forceset/vas_int_r/activation	/forceset/vas_int_r/fiber_length	/forceset/med_gas_r/activation	/forceset/med_gas_r/fiber_length	/forceset/lat_gas_r/activation	/forceset/lat_gas_r/fiber_length	/forceset/soleus_r/activation	/forceset/soleus_r/fiber_length	/forceset/tib_post_r/activation	/forceset/tib_post_r/fiber_length	/forceset/flex_dig_r/activation	/forceset/flex_dig_r/fiber_length	/forceset/flex_hal_r/activation	/forceset/flex_hal_r/fiber_length	/forceset/tib_ant_r/activation	/forceset/tib_ant_r/fiber_length	/forceset/per_brev_r/activation	/forceset/per_brev_r/fiber_length	/forceset/per_long_r/activation	/forceset/per_long_r/fiber_length	/forceset/per_tert_r/activation	/forceset/per_tert_r/fiber_length	/forceset/ext_dig_r/activation	/forceset/ext_dig_r/fiber_length	/forceset/ext_hal_r/activation	/forceset/ext_hal_r/fiber_length	/forceset/glut_med1_l/activation	/forceset/glut_med1_l/fiber_length	/forceset/glut_med2_l/activation	/forceset/glut_med2_l/fiber_length	/forceset/glut_med3_l/activation	/forceset/glut_med3_l/fiber_length	/forceset/bifemlh_l/activation	/forceset/bifemlh_l/fiber_length	/forceset/bifemsh_l/activation	/forceset/bifemsh_l/fiber_length	/forceset/sar_l/activation	/forceset/sar_l/fiber_length	/forceset/add_mag2_l/activation	/forceset/add_mag2_l/fiber_length	/forceset/tfl_l/activation	/forceset/tfl_l/fiber_length	/forceset/pect_l/activation	/forceset/pect_l/fiber_length	/forceset/grac_l/activation	/forceset/grac_l/fiber_length	/forceset/glut_max1_l/activation	/forceset/glut_max1_l/fiber_length	/forceset/glut_max2_l/activation	/forceset/glut_max2_l/fiber_length	/forceset/glut_max3_l/activation	/forceset/glut_max3_l/fiber_length	/forceset/iliacus_l/activation	/forceset/iliacus_l/fiber_length	/forceset/psoas_l/activation	/forceset/psoas_l/fiber_length	/forceset/quad_fem_l/activation	/forceset/quad_fem_l/fiber_length	/forceset/gem_l/activation	/forceset/gem_l/fiber_length	/forceset/peri_l/activation	/forceset/peri_l/fiber_length	/forceset/rect_fem_l/activation	/forceset/rect_fem_l/fiber_length	/forceset/vas_int_l/activation	/forceset/vas_int_l/fiber_length	/forceset/med_gas_l/activation	/forceset/med_gas_l/fiber_length	/forceset/lat_gas_l/activation	/forceset/lat_gas_l/fiber_length	/forceset/soleus_l/activation	/forceset/soleus_l/fiber_length	/forceset/tib_post_l/activation	/forceset/tib_post_l/fiber_length	/forceset/flex_dig_l/activation	/forceset/flex_dig_l/fiber_length	/forceset/flex_hal_l/activation	/forceset/flex_hal_l/fiber_length	/forceset/tib_ant_l/activation	/forceset/tib_ant_l/fiber_length	/forceset/per_brev_l/activation	/forceset/per_brev_l/fiber_length	/forceset/per_long_l/activation	/forceset/per_long_l/fiber_length	/forceset/per_tert_l/activation	/forceset/per_tert_l/fiber_length	/forceset/ext_dig_l/activation	/forceset/ext_dig_l/fiber_length	/forceset/ext_hal_l/activation	/forceset/ext_hal_l/fiber_length	/forceset/ercspn_r/activation	/forceset/ercspn_r/fiber_length	/forceset/ercspn_l/activation	/forceset/ercspn_l/fiber_length	/forceset/intobl_r/activation	/forceset/intobl_r/fiber_length	/forceset/intobl_l/activation	/forceset/intobl_l/fiber_length	/forceset/extobl_r/activation	/forceset/extobl_r/fiber_length	/forceset/extobl_l/activation	/forceset/extobl_l/fiber_length
      0.33842520	     20.00000000	     -0.00000000	     -0.00000000	      0.00000000	      0.00000000	      0.00000000	      0.25000000	      0.00000000	     -6.61432554	     80.06441682	     -2.59259484	   -328.20368965	     -0.76137953	   -262.51543928	      0.04828018	     -0.46650762	      1.12673170	     -2.18812258	     -0.00154375	      0.08197556	     16.88469135	    847.47730103	      0.36655610	    227.20553694	     -5.19469781	    -27.86105011	    -28.91423638	  -1783.62012409	     20.40432084	    757.17259695	      4.76573073	    105.13224515	      0.00000000	      0.00000000	    -19.99999998	      0.00000000	     10.00000028	      0.00000000	      4.99999985	      0.00000000	   -119.99999986	     -0.00000000	     11.49999977	     -0.00000000	     -0.03000064	      0.00000000	     -0.00000000	      0.00000000	     -6.96502323	   -192.57651109	      3.13030885	    394.45103782	      2.73850689	    330.25233526	     -0.01812977	      0.05007832	     -0.01812977	      0.08496406	     -0.01812977	      0.06561513	     -0.01812977	      0.09490003	     -0.01812977	      0.16029531	     -0.01812977	      0.45080085	     -0.01812977	      0.07824557	     -0.01812977	      0.10407299	     -0.01812977	      0.06493438	     -0.01812977	      0.30331057	     -0.01812977	      0.08747005	     -0.01812977	      0.09648722	     -0.01812977	      0.10967789	     -0.01812977	      0.09800356	     -0.01812977	      0.09224454	     -0.01812977	      0.04192417	     -0.01812977	      0.02225582	     -0.01812977	      0.02231787	     -0.01812977	      0.11053599	     -0.01812977	      0.08867106	     -0.01812977	      0.09683821	     -0.01812977	      0.06981937	     -0.01812977	      0.09066276	      0.20000000	      0.03456955	      0.20000000	      0.03044970	      0.20000000	      0.03994875	      0.20000000	      0.06373925	      0.60000000	      0.04842986	      0.60000000	      0.04570086	      0.60000000	      0.07011390	      0.60000000	      0.07655240	      0.20000000	      0.08727570	     -0.01812977	      0.04646954	     -0.01812977	      0.07924345	     -0.01812977	      0.06066849	     -0.01812977	      0.02207317	     -0.01812977	      0.12238178	     -0.01812977	      0.45556126	     -0.01812977	      0.05828642	     -0.01812977	      0.13391495	     -0.01812977	      0.07307389	     -0.01812977	      0.24301553	     -0.01812977	      0.06638073	     -0.01812977	      0.06554424	     -0.01812977	      0.05770037	     -0.01812977	      0.11895704	     -0.01812977	      0.11276383	     -0.01812977	      0.04385542	     -0.01812977	      0.02477863	     -0.01812977	      0.02332641	     -0.01812977	      0.18252185	     -0.01812977	      0.13945923	     -0.01812977	      0.06773758	     -0.01812977	      0.04190353	     -0.01812977	      0.08593352	     -0.01812977	      0.03561975	     -0.01812977	      0.03422579	     -0.01812977	      0.04262110	     -0.01812977	      0.07211219	     -0.01812977	      0.05030460	     -0.01812977	      0.05155967	     -0.01812977	      0.07464108	     -0.01812977	      0.08888360	     -0.01812977	      0.09641128	     -0.01812977	      0.12206093	     -0.01812977	      0.12703680	     -0.01812977	      0.09158254	     -0.01812977	      0.09571356	     -0.01812977	      0.12159163	     -0.01812977	      0.12994756
      0.33846214	     20.00000000	     -0.00000000	     -0.00000000	      0.00000000	      0.00000000	      0.00000000	      0.25000000	      0.00000000	     -6.61136941	     80.01209358	     -2.60471262	   -327.98248269	     -0.77107246	   -262.36331809	      0.04826295	     -0.46630442	      1.12665087	     -2.18879300	     -0.00154072	      0.08212316	     16.91598657	    847.17975415	      0.37495062	    227.36295381	     -5.19572182	    -27.59052792	    -28.98009391	  -1782.60975360	     20.43217437	    751.11268323	      4.76936582	     91.71368830	      0.00000000	      0.00000000	    -19.99999998	      0.00000000	     10.00000028	      0.00000000	      4.99999985	      0.00000000	   -119.99999986	     -0.00000000	     11.49999977	     -0.00000000	     -0.03000064	      0.00000000	     -0.00000000	      0.00000000	     -6.97213655	   -192.61412041	      3.14487067	    394.08117687	      2.75070180	    330.11034226	     -0.01813453	      0.05009101	     -0.01813453	      0.08498546	     -0.01813453	      0.06563419	     -0.01813453	      0.09489481	     -0.01813453	      0.16027886	     -0.01813453	      0.45076153	     -0.01813453	      0.07825344	     -0.01813453	      0.10407090	     -0.01813453	      0.06492487	     -0.01813453	      0.30327710	     -0.01813453	      0.08749747	     -0.01813453	      0.09651758	     -0.01813453	      0.10971218	     -0.01813453	      0.09799405	     -0.01813453	      0.09223502	     -0.01813453	      0.04192290	     -0.01813453	      0.02225499	     -0.01813453	      0.02232792	     -0.01813453	      0.11056816	     -0.01813453	      0.08872249	     -0.01813453	      0.09683500	     -0.01813453	      0.06981580	     -0.01813453	      0.09067846	      0.20000000	      0.03456803	      0.20000000	      0.03044871	      0.20000000	      0.03994752	      0.20000000	      0.06373091	      0.60000000	      0.04843666	      0.60000000	      0.04570450	      0.60000000	      0.07011017	      0.60000000	      0.07655226	      0.20000000	      0.08727129	     -0.01813453	      0.04646954	     -0.01813453	      0.07924345	     -0.01813453	      0.06066849	     -0.01813453	      0.02207317	     -0.01813453	      0.12238178	     -0.01813453	      0.45556126	     -0.01813453	      0.05828642	     -0.01813453	      0.13391495	     -0.01813453	      0.07307389	     -0.01813453	      0.24301553	     -0.01813453	      0.06638073	     -0.01813453	      0.06554424	     -0.01813453	      0.05770037	     -0.01813453	      0.11895704	     -0.01813453	      0.11276383	     -0.01813453	      0.04385542	     -0.01813453	      0.02477863	     -0.01813453	      0.02332641	     -0.01813453	      0.18252185	     -0.01813453	      0.13945923	     -0.01813453	      0.06773758	     -0.01813453	      0.04190353	     -0.01813453	      0.08593352	     -0.01813453	      0.03561975	     -0.01813453	      0.03422579	     -0.01813453	      0.04262111	     -0.01813453	      0.07211219	     -0.01813453	      0.05030460	     -0.01813453	      0.05155967	     -0.01813453	      0.07464108	     -0.01813453	      0.08888360	     -0.01813453	      0.09641128	     -0.01813453	      0.12205352	     -0.01813453	      0.12703622	     -0.01813453	      0.09157303	     -0.01813453	      0.09572386	     -0.01813453	      0.12157174	     -0.01813453	      0.12996110
      0.33864681	     20.00000000	     -0.00000000	     -0.00000000	      0.00000000	      0.00000000	      0.00000000	      0.25000000	      0.00000000	     -6.59661801	     79.74791860	     -2.66517864	   -326.87323336	     -0.81945262	   -261.60040579	      0.04817693	     -0.46527782	      1.12624636	     -2.19214035	     -0.00152548	      0.08286339	     17.07229815	    845.69594844	      0.41700938	    228.13676359	     -5.20069626	    -26.30074869	    -29.30882159	  -1777.55414861	     20.56807338	    720.64637076	      4.78012770	     24.92864473	      0.00000000	      0.00000000	    -19.99999998	      0.00000000	     10.00000028	      0.00000000	      4.99999985	      0.00000000	   -119.99999986	     -0.00000000	     11.49999977	     -0.00000000	     -0.03000064	      0.00000000	     -0.00000000	      0.00000000	     -7.00772309	   -192.79193967	      3.21747436	    392.22752143	      2.81159709	    329.39328287	     -0.01815830	      0.05015426	     -0.01815830	      0.08508461	     -0.01815830	      0.06572953	     -0.01815830	      0.09486814	     -0.01815830	      0.16019659	     -0.01815830	      0.45056488	     -0.01815830	      0.07829277	     -0.01815830	      0.10406005	     -0.01815830	      0.06487732	     -0.01815830	      0.30310971	     -0.01815830	      0.08763446	     -0.01815830	      0.09666926	     -0.01815830	      0.10988345	     -0.01815830	      0.09794649	     -0.01815830	      0.09218747	     -0.01815830	      0.04191691	     -0.01815830	      0.02225107	     -0.01815830	      0.02237834	     -0.01815830	      0.11072849	     -0.01815830	      0.08897907	     -0.01815830	      0.09681866	     -0.01815830	      0.06979766	     -0.01815830	      0.09075555	      0.20000000	      0.03456052	      0.20000000	      0.03044381	      0.20000000	      0.03994144	      0.20000000	      0.06368827	      0.60000000	      0.04846868	      0.60000000	      0.04572278	      0.60000000	      0.07009022	      0.60000000	      0.07655100	      0.20000000	      0.08724850	     -0.01815830	      0.04646954	     -0.01815830	      0.07924345	     -0.01815830	      0.06066849	     -0.01815830	      0.02207317	     -0.01815830	      0.12238178	     -0.01815830	      0.45556126	     -0.01815830	      0.05828642	     -0.01815830	      0.13391495	     -0.01815830	      0.07307389	     -0.01815830	      0.24301553	     -0.01815830	      0.06638073	     -0.01815830	      0.06554424	     -0.01815830	      0.05770037	     -0.01815830	      0.11895704	     -0.01815830	      0.11276383	     -0.01815830	      0.04385542	     -0.01815830	      0.02477863	     -0.01815830	      0.02332641	     -0.01815830	      0.18252185	     -0.01815830	      0.13945923	     -0.01815830	      0.06773758	     -0.01815830	      0.04190353	     -0.01815830	      0.08593352	     -0.01815830	      0.03561975	     -0.01815830	      0.03422581	     -0.01815830	      0.04262113	     -0.01815830	      0.07211219	     -0.01815830	      0.05030460	     -0.01815830	      0.05155967	     -0.01815830	      0.07464108	     -0.01815830	      0.08888360	     -0.01815830	      0.09641128	     -0.01815830	      0.12201660	     -0.01815830	      0.12705978	     -0.01815830	      0.09152548	     -0.01815830	      0.09577509	     -0.01815830	      0.12147394	     -0.01815830	      0.13002850
      0.33888093	     20.00000000	     -0.00000000	     -0.00000000	      0.00000000	      0.00000000	      0.00000000	      0.25000000	      0.00000000	     -6.57798643	     79.41893014	     -2.74154246	   -325.47918351	     -0.88058571	   -260.63736375	      0.04806815	     -0.46397874	      1.12573264	     -2.19634675	     -0.00150597	      0.08378656	     17.27007430	    843.81367936	      0.47053365	    229.10280456	     -5.20667686	    -24.81507354	    -29.72423491	  -1771.13410467	     20.73223722	    681.66500835	      4.77613248	    -58.88682743	      0.00000000	      0.00000000	    -19.99999998	      0.00000000	     10.00000028	      0.00000000	      4.99999985	      0.00000000	   -119.99999986	     -0.00000000	     11.49999977	     -0.00000000	     -0.03000064	      0.00000000	     -0.00000000	      0.00000000	     -7.05288514	   -193.01565706	      3.30902880	    389.89630729	      2.88860816	    328.48621701	     -0.01818845	      0.05023397	     -0.01818845	      0.08519193	     -0.01818845	      0.06585043	     -0.01818845	      0.09483311	     -0.01818845	      0.16009230	     -0.01818845	      0.45031536	     -0.01818845	      0.07834278	     -0.01818845	      0.10404531	     -0.01818845	      0.06481703	     -0.01818845	      0.30289750	     -0.01818845	      0.08780782	     -0.01818845	      0.09686118	     -0.01818845	      0.11010012	     -0.01818845	      0.09788621	     -0.01818845	      0.09212719	     -0.01818845	      0.04191015	     -0.01818845	      0.02224662	     -0.01818845	      0.02244258	     -0.01818845	      0.11093033	     -0.01818845	      0.08930287	     -0.01818845	      0.09679694	     -0.01818845	      0.06977386	     -0.01818845	      0.09084968	      0.20000000	      0.03455126	      0.20000000	      0.03043771	      0.20000000	      0.03993396	      0.20000000	      0.06363219	      0.60000000	      0.04850463	      0.60000000	      0.04574585	      0.60000000	      0.07006194	      0.60000000	      0.07654814	      0.20000000	      0.08721786	     -0.01818845	      0.04646954	     -0.01818845	      0.07924345	     -0.01818845	      0.06066849	     -0.01818845	      0.02207317	     -0.01818845	      0.12238178	     -0.01818845	      0.45556126	     -0.01818845	      0.05828642	     -0.01818845	      0.13391495	     -0.01818845	      0.07307389	     -0.01818845	      0.24301553	     -0.01818845	      0.06638073	     -0.01818845	      0.06554424	     -0.01818845	      0.05770037	     -0.01818845	      0.11895704	     -0.01818845	      0.11276383	     -0.01818845	      0.04385542	     -0.01818845	      0.02477863	     -0.01818845	      0.02332642	     -0.01818845	      0.18252185	     -0.01818845	      0.13945923	     -0.01818845	      0.06773758	     -0.01818845	      0.04190353	     -0.01818845	      0.08593352	     -0.01818845	      0.03561975	     -0.01818845	      0.03422584	     -0.01818845	      0.04262117	     -0.01818845	      0.07211219	     -0.01818845	      0.05030460	     -0.01818845	      0.05155967	     -0.01818845	      0.07464108	     -0.01818845	      0.08888360	     -0.01818845	      0.09641128	     -0.01818845	      0.12197008	     -0.01818845	      0.12719219	     -0.01818845	      0.09146519	     -0.01818845	      0.09583935	     -0.01818845	      0.12135380	     -0.01818845	      0.13011329
